<?xml version="1.0" encoding="UTF-8"?>
<svg width="24px" height="24px" viewBox="0 0 24 24" version="1.1" xmlns="http://www.w3.org/2000/svg">
    <g stroke="none" stroke-width="1" fill="none" fill-rule="evenodd">
        <path d="M17,3H5C3.89,3,3,3.9,3,5v14c0,1.1,0.89,2,2,2h14c1.1,0,2-0.9,2-2V7L17,3z M19,19H5V5h11.17L19,7.83V19z M12,12c-1.66,0-3,1.34-3,3s1.34,3,3,3s3-1.34,3-3S13.66,12,12,12z M6,6h9v4H6V6z" fill="#FF9800"/>
        <path d="M21.5,10.5L21.5,21.5L10.5,21.5" stroke="#FF9800" stroke-width="2" stroke-linecap="round" stroke-linejoin="round"/>
        <polyline stroke="#FF9800" stroke-width="2" stroke-linecap="round" stroke-linejoin="round" points="21.5 14.5 17.5 10.5 13.5 14.5"></polyline>
    </g>
</svg> 